<svg id="Layer_1" data-name="Layer 1" xmlns="http://www.w3.org/2000/svg" viewBox="0 0 485 485"><title>After-effects</title><path d="M0,0V485H485V0ZM455,455H30V30H455Z"/><path d="M1.06,0V485h485V0ZM457.65,456.58H29.48V28.42H457.65Z"/><path d="M189.46,156H160.17l-65,170.42h34.09l15.6-42.49h59.53l15.84,42.49h34.09ZM150.33,260.66l24.49-67,23.52,67Z"/><path d="M390.61,261.86c0-43.4-33.56-64.57-65.53-64.57-44.79,0-66.49,34.55-66.49,65.77,0,34.79,26.08,64.57,66.25,64.57,38.21,0,53.92-23.28,58.57-32.88l-27.61-7.68c-2.08,5.12-11.92,17-29.76,17-27.58,0-32.89-26.49-33.37-31.45h97.22A104.6,104.6,0,0,0,390.61,261.86Zm-98.42-10.08c1.48-18.44,15.48-31.2,32.41-31.2,16.45,0,30.95,11.14,32.88,31.2Z"/></svg>