<svg id="Capa_1" data-name="Capa 1" xmlns="http://www.w3.org/2000/svg" viewBox="0 0 568 367"><title>behance</title><path d="M436.65,362.64c-39.82,0-73.52-13.21-97.47-38.2-23.5-24.53-35.93-58.55-35.93-98.4,0-79.75,56.1-137.63,133.4-137.63,38.85,0,71.6,14.6,94.69,42.22C552.4,155.82,564,190.84,564,229.25c0,4.5-.29,8.95-.59,13.13l-.63,8.83H389.24c2.92,28.29,19.53,42.61,49.48,42.61,17.25,0,38.77-9.51,43.47-24.89l2.06-6.72h78.8l-4,12.44c-9.56,29.4-24.79,51.7-45.25,66.28C493.54,355.34,467.6,362.64,436.65,362.64Zm0-255.23c-66.29,0-114.4,49.89-114.4,118.63,0,71.44,44.91,117.6,114.4,117.6,49.89,0,81.87-19.91,99.68-62.43H497.65c-10.47,20.59-37,31.61-58.93,31.61s-39.16-6.47-51.23-19.23c-11.76-12.42-17.71-29.87-17.71-51.88v-9.5H545c0-1,0-2,0-3C545,168.6,511.49,107.41,436.65,107.41ZM173.11,356.32H1.5V2.92H168.67c34.79,0,61,5.86,80,17.91,24.15,15.29,36.4,40.33,36.4,74.44,0,29.43-11,51.85-33.41,68,31.64,15.84,48.79,45.88,48.79,86.43,0,34.54-13.86,62.8-40.08,81.72C238.16,347.49,207.16,356.32,173.11,356.32Zm-152.61-19H173.11c52.38,0,108.35-23,108.35-87.59,0-27.48-9.39-62.88-54.13-75.5l-24.26-6.84,22.74-10.87c27.85-13.31,40.27-32.2,40.27-61.25,0-27.55-9-46.65-27.56-58.38-15.91-10.07-38.76-15-69.85-15H20.5Zm142.6-37.8H75V188.43h89.61c19.11,0,34.13,4.45,44.65,13.23,11.74,9.81,17.69,24.62,17.69,44C227,265.78,218.66,299.52,163.1,299.52Zm-69.1-19h69.1c40.2,0,44.85-19.89,44.85-34.85,0-26.45-13.36-38.24-43.34-38.24H94Zm404-71.21H369.2l.69-10.14c2.51-36.79,27.9-60.57,64.68-60.57s59.06,21.45,62.49,60.38Zm-107.59-19h86.21c-4.84-22-18.67-32.71-42-32.71S395.41,169.64,390.38,190.31ZM159.05,157H75V60h78.48C203,60,213.37,86,213.37,107.72,213.37,139.06,193.57,157,159.05,157ZM94,138h65.05c31.66,0,35.32-17.3,35.32-30.32,0-14.2-4.86-28.71-40.89-28.71H94ZM510.87,72.4H356.28V20.47H510.87Zm-135.59-19H491.87V39.47H375.28Z"/></svg>