<svg id="Capa_1" data-name="Capa 1" xmlns="http://www.w3.org/2000/svg" viewBox="0 0 465 470"><title>linkedin2</title><path d="M466.5,466.5H354.72V311.4c0-39.49-2.86-69.7-38.79-69.7-33.24,0-46.19,18.84-46.19,67.2V466.5H158V148.4H266v23.77a104.49,104.49,0,0,1,18.45-14.51c17.72-11,38.89-16.76,61.23-16.76,106.43,0,120.78,76.74,120.78,151.8Zm-92.78-19H447.5V292.7c0-45.76-5.84-75.44-18.93-96.24-15.49-24.6-42.59-36.56-82.85-36.56-41.82,0-69,23.29-79.48,43.23l-2.67,5.07H247V167.4H177V447.5h73.78V308.9c0-26.12,3.37-43.87,10.92-57.56,10.48-19,28.74-28.64,54.27-28.64,25.16,0,42.26,11,50.82,32.59,7,17.59,7,39.85,7,56.11Zm-254.94,19H6.9V148.4H118.78Zm-92.88-19H99.78V167.4H25.9ZM62.79,126.6C27.89,126.6-.5,98-.5,62.8A63.36,63.36,0,0,1,62.79-.48h0A63.36,63.36,0,0,1,126.08,62.8C126.08,98,97.69,126.6,62.79,126.6Zm0-108.08A44.33,44.33,0,0,0,18.5,62.8c0,24.7,19.87,44.8,44.29,44.8s44.29-20.1,44.29-44.8A44.34,44.34,0,0,0,62.8,18.52Z"/></svg>