<svg id="Layer_1" data-name="Layer 1" xmlns="http://www.w3.org/2000/svg" viewBox="0 0 485 485"><title>xd</title><path d="M0,0V485H485V0ZM455,455H30V30H455Z"/><polygon points="252.86 170.99 218.99 170.99 178.98 231.01 138.74 170.99 104.64 170.99 162.16 252.83 106.46 332.4 140.56 332.4 178.98 274.66 217.17 332.4 251.04 332.4 195.35 252.83 252.86 170.99"/><path d="M375.86,297.39V166.44H345.39v67.75a46.15,46.15,0,0,0-40.24-23c-28.25,0-53.2,24.55-53.2,61.61,0,32.68,21.64,61.83,56.61,61.83a47.62,47.62,0,0,0,41.38-23s-2,22.28,20,22.28a69,69,0,0,0,13-1.59V306.48C380.32,306.33,375.86,300.57,375.86,297.39Zm-30.47-8.64c-1.06,2.88-9.75,20-28.87,20-20.2,0-33-17.88-33-35.24,0-15.79,10.4-36.38,31.14-36.38,18.57,0,29.48,19.86,30.69,23.19Z"/></svg>